<svg xmlns="http://www.w3.org/2000/svg" viewBox="0 0 1080 1080"><defs><style>.cls-1{font-size:126.79px;font-family:MyriadPro-Regular, Myriad Pro;}.cls-2{letter-spacing:-0.01em;}.cls-3{fill:#f01518;}</style></defs><g id="Calque_1" data-name="Calque 1"><text class="cls-1" transform="translate(-783.62 571.4)">#007<tspan class="cls-2" x="258.15" y="0">c</tspan><tspan x="314.19" y="0">ef</tspan></text></g><g id="Calque_3" data-name="Calque 3"><circle class="cls-3" cx="341.89" cy="591.99" r="11.85"/><circle class="cls-3" cx="290.1" cy="581.17" r="11.85"/><rect class="cls-3" x="304.14" y="560.13" width="23.71" height="52.9" transform="translate(954.79 397.17) rotate(101.8)"/><circle class="cls-3" cx="357.95" cy="554.84" r="11.85"/><circle class="cls-3" cx="291.58" cy="540.98" r="11.85"/><rect class="cls-3" x="312.5" y="514.56" width="23.71" height="66.53" transform="translate(926.91 342.31) rotate(101.8)"/><circle class="cls-3" cx="322.43" cy="627.66" r="11.85"/><circle class="cls-3" cx="297.8" cy="622.52" r="11.85"/><rect class="cls-3" x="298.98" y="613.39" width="23.71" height="23.71" transform="translate(986.41 448.79) rotate(101.8)"/><circle class="cls-3" cx="336.42" cy="511.15" r="11.85"/><circle class="cls-3" cx="295.58" cy="502.62" r="11.85"/><rect class="cls-3" x="304.15" y="486.03" width="23.71" height="41.72" transform="translate(876.78 301.18) rotate(101.8)"/></g><g id="Calque_4" data-name="Calque 4"><path class="cls-3" d="M496.06,617.26c15.29-18,25.86-8.53,25.88-8.52h0s19.74,14.47,24.34,4.52c3.1-6.72-6.48-19.58-18-35.18,0,0-10.79-16.33-31.82-4.9-16.43,8.92-26.89-9.4-35.11-20.34a18.32,18.32,0,0,0-14.85-7.4c-15.6.17-37.93-1.58-39.53-25.34-1.28-19.09,5.64-25.24,27.54-27.71,10.66-1.2,17.08-7.63,25.14-14.71,2.88-2.53,28.42-37.61,55.21-43.23h0l191.58-1.36c37.66,0,59.4-25.72,59.4-55.18v-1.17c0-37.66-22.82-55.41-60.48-55.41H495a192.18,192.18,0,0,0-183.54,135c-1.57,5-3,10-4.44,14.9a5.75,5.75,0,0,0,4.32,7.2l35.08,7.54h0c.35.18,22.27,11.59,17.24,29.41h0L359,526.22a2.39,2.39,0,0,0,1.51,3.22l10.19,3.06h0c.27.16,17,10.21,13.68,25.2-2,9.18-8,15.62-12.35,19.27a8,8,0,0,0-2.32,8.07c1.27,3.63,2,9.61-.94,18.56a23.65,23.65,0,0,1-18.56,16.45,2.89,2.89,0,0,0-2.23,3.52c1.61,6.47,1.07,19.87-22.68,31.5-4.33,2.12,4.41,15.89.84,31.42L321,710.63a11.56,11.56,0,0,0,7.26,13.74,11.32,11.32,0,0,0,14.65-8l3.77-15.55h0l.83-3.42h0c1.27-4,4.23-10.14,10.56-9.67,8.1.61,6.27,11.23,5.61,14.15l-.18.75h0L354,741.87c-1.71,7.08,1.82,14,7.89,15.49s12.39-3.07,14.11-10.15l10.21-42.06h0L389.37,692h0c2-5,5.16-9.42,10-8.54,6.26,1.15,6.4,8.63,5.46,14.56h0L403,705.51h0l-11.8,48.63c-2.07,8.51,1.18,16.6,7.26,18.07s12.67-4.23,14.73-12.74L427.12,702h0c2.12-6.17,5.64-12.46,11.07-11.58,6.33,1,5.62,11.54,4.12,19.57h0l-2.23,9.17h0l-12.41,51.15c-2.43,10,.53,19.32,6.6,20.8s13-5.45,15.4-15.47l28-114.84C480.46,649.73,482.58,633.17,496.06,617.26Z"/><path class="cls-3" d="M417.42,510.34c-3,9,5.95,17.31,9,19.84a6.94,6.94,0,0,0,2.11,1.18c4.62,1.61,22.46,7.42,31.66,4.63a17.56,17.56,0,0,1,16.09,2.72,6.77,6.77,0,0,1,1.77,2.07l6.32,11.2a6.75,6.75,0,0,0,3.35,3c7.12,2.84,14.51,1.83,19.77.3a7,7,0,0,0,4.36-9.6,399,399,0,0,0-21.33-40.89,7,7,0,0,0-5.52-3.34c-27.43-1.86-53.58,2.69-62.44,4.47A6.75,6.75,0,0,0,417.42,510.34Z"/><path class="cls-3" d="M690.13,671l-120.33-.13H533.61c-17.67,0-38.91-1.53-46.84,29l-5.81,32h0a40.2,40.2,0,0,0,39.24,49H733.56c53.57-2.9,50.68-26.53,49.82-65.12L782,669.9h0C745.75,671.43,690.13,671,690.13,671Z"/><circle class="cls-3" cx="732.3" cy="669.9" r="49.79"/></g></svg>