<svg id="Calque_1" data-name="Calque 1" xmlns="http://www.w3.org/2000/svg" viewBox="0 0 1080 1080"><defs><style>.cls-1{fill:#f01518;}</style></defs><circle class="cls-1" cx="212.23" cy="627.68" r="20.55"/><circle class="cls-1" cx="122.46" cy="608.94" r="20.55"/><rect class="cls-1" x="146.8" y="572.46" width="41.09" height="91.7" transform="translate(806.81 580.9) rotate(101.8)"/><circle class="cls-1" cx="240.07" cy="563.29" r="20.55"/><circle class="cls-1" cx="125.03" cy="539.27" r="20.55"/><rect class="cls-1" x="161.28" y="493.46" width="41.09" height="115.32" transform="translate(758.48 485.81) rotate(101.8)"/><circle class="cls-1" cx="178.5" cy="689.52" r="20.55"/><circle class="cls-1" cx="135.8" cy="680.6" r="20.55"/><rect class="cls-1" x="137.84" y="664.77" width="41.09" height="41.09" transform="translate(861.61 670.37) rotate(101.8)"/><circle class="cls-1" cx="202.75" cy="487.56" r="20.55"/><circle class="cls-1" cx="131.96" cy="472.77" r="20.55"/><rect class="cls-1" x="146.81" y="444" width="41.09" height="72.32" transform="translate(671.59 414.5) rotate(101.8)"/><path class="cls-1" d="M479.48,671.48c26.5-31.29,44.82-14.77,44.85-14.75h0c.08,0,34.22,25.07,42.19,7.82,5.37-11.65-11.24-33.93-31.22-61,0,0-18.69-28.31-55.15-8.51-28.49,15.47-46.62-16.29-60.86-35.25A31.77,31.77,0,0,0,393.54,547c-27,.28-65.75-2.75-68.51-43.92-2.22-33.09,9.76-43.77,47.74-48.05,18.46-2.08,29.61-13.23,43.57-25.49,5-4.39,49.26-65.19,95.7-74.94h0l332.09-2.36c65.28,0,103-44.58,103-95.65v-2c0-65.29-39.55-96.06-104.83-96.06H477.57c-145.8,0-274.84,94.73-318.16,234-2.71,8.71-5.25,17.33-7.69,25.81a10,10,0,0,0,7.49,12.48L220,443.83h0c.61.32,38.6,20.08,29.88,51v0l-8,18.85a4.14,4.14,0,0,0,2.62,5.58l17.66,5.3h0c.47.28,29.48,17.7,23.71,43.68-3.54,15.9-13.85,27.08-21.41,33.4-3.71,3.1-5.62,9.43-4,14,2.21,6.29,3.42,16.66-1.62,32.17-6.76,20.83-23.37,26.81-32.18,28.52a5,5,0,0,0-3.86,6.09c2.78,11.22,1.85,34.44-39.32,54.61-7.5,3.68,7.64,27.55,1.46,54.46l-8.93,41.85c-2.42,10,2.86,20.53,12.59,23.81A19.61,19.61,0,0,0,214,843.21l6.54-26.94h0l1.44-5.93h0c2.19-7,7.33-17.58,18.3-16.75,14,1,10.87,19.46,9.72,24.52l-.31,1.3h0L233.2,887.49c-3,12.28,3.14,24.3,13.67,26.85s21.47-5.32,24.45-17.6L289,823.83h0l5.52-22.73v0c3.48-8.74,8.94-16.33,17.27-14.79,10.86,2,11.09,15,9.47,25.23h0l-3.14,12.94h0l-20.46,84.29c-3.57,14.75,2.06,28.78,12.59,31.34s22-7.33,25.54-22.09L360,818.45v0c3.67-10.7,9.77-21.6,19.19-20.08,11,1.77,9.75,20,7.14,33.93h0l-3.86,15.9h0l-21.51,88.65c-4.21,17.36.91,33.51,11.44,36.06s22.48-9.45,26.69-26.81L447.61,747C452.43,727.76,456.11,699.06,479.48,671.48Z"/><path class="cls-1" d="M343.15,486.15c-5.19,15.57,10.31,30,15.63,34.38a11.73,11.73,0,0,0,3.67,2.05c8,2.79,38.94,12.87,54.88,8a30.44,30.44,0,0,1,27.89,4.72,12,12,0,0,1,3.08,3.59l10.94,19.4a11.75,11.75,0,0,0,5.81,5.21c12.35,4.93,25.15,3.17,34.27.53a12.11,12.11,0,0,0,7.56-16.65,689.37,689.37,0,0,0-37-70.87,12.12,12.12,0,0,0-9.56-5.79c-47.56-3.23-92.88,4.65-108.25,7.73A11.8,11.8,0,0,0,343.15,486.15Z"/><path class="cls-1" d="M815.87,764.59l-208.57-.23H544.57c-30.63,0-67.45-2.65-81.2,50.33l-10.08,55.49h0a69.7,69.7,0,0,0,68,84.87H891.16c92.85-5,87.84-46,86.36-112.9l-2.47-79.42h0C912.29,765.39,815.87,764.59,815.87,764.59Z"/><circle class="cls-1" cx="888.97" cy="762.73" r="86.3"/></svg>